<?xml version="1.0" standalone="no"?>
<!DOCTYPE svg PUBLIC "-//W3C//DTD SVG 1.1//EN" "http://www.w3.org/Graphics/SVG/1.1/DTD/svg11.dtd" >
<svg>
<metadata>
Created by FontForge 20090622 at Tue Apr  5 04:48:40 2016
 By ffonts
Copyright David Fens 2013
</metadata>
<defs>
<font id="Mega-Man-Battle-Network" horiz-adv-x="1088" >
  <font-face 
    font-family="Mega Man Battle Network"
    font-weight="400"
    font-stretch="normal"
    units-per-em="1024"
    panose-1="0 0 4 0 0 0 0 0 0 0"
    ascent="819"
    descent="-205"
    x-height="1408"
    cap-height="1408"
    bbox="0 0 1408 1408"
    underline-thickness="51"
    underline-position="127"
    unicode-range="U+0020-U+007A"
  />
<missing-glyph horiz-adv-x="64" 
d="M704 199v224h-224v-224h224zM927 461v224h-447v-224h447zM704 722v224h-224v-224h224zM927 984v222h-223q-93 0 -158 -65q-66 -66 -66 -157h447zM0 0v1408h1408v-1408h-1408z" />
    <glyph glyph-name=".notdef" horiz-adv-x="64" 
d="M704 199v224h-224v-224h224zM927 461v224h-447v-224h447zM704 722v224h-224v-224h224zM927 984v222h-223q-93 0 -158 -65q-66 -66 -66 -157h447zM0 0v1408h1408v-1408h-1408z" />
    <glyph glyph-name="glyph1" horiz-adv-x="64" 
 />
    <glyph glyph-name="glyph2" horiz-adv-x="384" 
 />
    <glyph glyph-name="space" unicode=" " horiz-adv-x="320" 
 />
    <glyph glyph-name="slash" unicode="/" horiz-adv-x="960" 
d="M0 0v384h256v-384h-256zM256 384v640h256v-640h-256zM512 1024v384h256v-384h-256z" />
    <glyph glyph-name="zero" unicode="0" horiz-adv-x="960" 
d="M512 256v384h-128v-128h-128v-256h256zM384 768v128h128v256h-256v-384h128zM128 0v128h-128v1152h128v128h512v-128h128v-1152h-128v-128h-512z" />
    <glyph glyph-name="one" unicode="1" horiz-adv-x="704" 
d="M256 0v1024h-256v256h256v128h256v-1408h-256z" />
    <glyph glyph-name="two" unicode="2" horiz-adv-x="960" 
d="M0 0v640h128v128h256v128h128v256h-256v-256h-256v384h128v128h512v-128h128v-512h-128v-128h-128v-128h-256v-256h512v-256h-768z" />
    <glyph glyph-name="three" unicode="3" horiz-adv-x="960" 
d="M128 0v128h-128v256h256v-128h256v256h-128v128h-128v256h128v128h128v128h-256v-128h-256v256h128v128h512v-128h128v-384h-128v-256h128v-512h-128v-128h-512z" />
    <glyph glyph-name="four" unicode="4" horiz-adv-x="960" 
d="M384 640v256h-128v-256h128zM384 0v384h-384v640h128v128h128v128h128v128h256v-768h128v-256h-128v-384h-256z" />
    <glyph glyph-name="five" unicode="5" horiz-adv-x="960" 
d="M0 0v256h384v128h128v256h-128v128h-384v640h768v-256h-512v-128h256v-128h128v-128h128v-512h-128v-128h-128v-128h-512z" />
    <glyph glyph-name="six" unicode="6" horiz-adv-x="960" 
d="M512 256v384h-256v-384h256zM128 0v128h-128v1024h128v128h128v128h384v-256h-256v-128h-128v-128h384v-128h128v-640h-128v-128h-512z" />
    <glyph glyph-name="seven" unicode="7" horiz-adv-x="960" 
d="M256 0v896h128v128h128v128h-512v256h768v-512h-128v-128h-128v-768h-256z" />
    <glyph glyph-name="eight" unicode="8" horiz-adv-x="960" 
d="M512 256v384h-256v-384h256zM512 896v256h-256v-256h256zM128 0v128h-128v640h128v128h-128v384h128v128h512v-128h128v-384h-128v-128h128v-640h-128v-128h-512z" />
    <glyph glyph-name="nine" unicode="9" horiz-adv-x="960" 
d="M512 896v256h-256v-256h256zM128 0v256h256v128h128v256h-384v128h-128v512h128v128h512v-128h128v-1024h-128v-128h-128v-128h-384z" />
    <glyph glyph-name="A" unicode="A" 
d="M640 640v256h-128v128h-128v-128h-128v-256h384zM0 0v1024h128v128h128v128h128v128h128v-128h128v-128h128v-128h128v-1024h-256v384h-384v-384h-256z" />
    <glyph glyph-name="B" unicode="B" 
d="M512 256v128h128v128h-128v128h-256v-384h256zM512 896v256h-256v-256h256zM0 0v1408h640v-128h128v-384h-128v-128h128v-128h128v-384h-128v-128h-128v-128h-640z" />
    <glyph glyph-name="C" unicode="C" 
d="M384 0v128h-128v128h-128v128h-128v640h128v128h128v128h128v128h512v-256h-256v-128h-256v-128h-128v-384h128v-128h256v-128h256v-256h-512z" />
    <glyph glyph-name="D" unicode="D" 
d="M512 256v128h128v640h-128v128h-256v-896h256zM0 0v1408h640v-128h128v-128h128v-896h-128v-128h-128v-128h-640z" />
    <glyph glyph-name="E" unicode="E" 
d="M0 0v1408h896v-256h-640v-256h384v-256h-384v-384h640v-256h-896z" />
    <glyph glyph-name="F" unicode="F" 
d="M0 0v1408h896v-256h-640v-256h384v-256h-384v-640h-256z" />
    <glyph glyph-name="G" unicode="G" 
d="M256 0v128h-128v128h-128v896h128v128h128v128h640v-256h-512v-128h-128v-640h128v-128h256v256h-128v256h384v-640h-128v-128h-512z" />
    <glyph glyph-name="H" unicode="H" 
d="M0 0v1408h256v-512h384v512h256v-1408h-256v640h-384v-640h-256z" />
    <glyph glyph-name="I" unicode="I" horiz-adv-x="448" 
d="M0 0v1408h256v-1408h-256z" />
    <glyph glyph-name="J" unicode="J" 
d="M256 0v128h-128v128h-128v384h256v-384h256v128h128v1024h256v-1152h-128v-128h-128v-128h-384z" />
    <glyph glyph-name="K" unicode="K" 
d="M0 0v1408h256v-384h128v128h128v128h128v128h256v-256h-128v-128h-128v-128h-128v-128h128v-128h128v-128h128v-512h-256v384h-128v128h-128v128h-128v-640h-256z" />
    <glyph glyph-name="L" unicode="L" 
d="M0 0v1408h256v-1152h640v-256h-896z" />
    <glyph glyph-name="M" unicode="M" 
d="M0 0v1408h128v-128h128v-128h128v-128h128v128h128v128h128v128h128v-1408h-256v768h-128v-128h-128v128h-128v-768h-256z" />
    <glyph glyph-name="N" unicode="N" 
d="M0 0v1408h256v-128h128v-128h128v-128h128v384h256v-1408h-256v640h-128v128h-128v128h-128v-896h-256z" />
    <glyph glyph-name="O" unicode="O" 
d="M640 256v896h-384v-896h384zM128 0v128h-128v1152h128v128h640v-128h128v-1152h-128v-128h-640z" />
    <glyph glyph-name="P" unicode="P" 
d="M512 768v128h128v256h-384v-384h256zM0 0v1408h768v-128h128v-512h-128v-128h-128v-128h-384v-512h-256z" />
    <glyph glyph-name="Q" unicode="Q" 
d="M640 0v128h-128v128h-128v256h256v-128h128v-128h128v-256h-256zM128 0v128h-128v1152h128v128h640v-128h128v-896h-128v128h-128v640h-384v-896h128v-128h128v-128h-384z" />
    <glyph glyph-name="R" unicode="R" 
d="M512 768v128h128v256h-384v-384h256zM0 0v1408h768v-128h128v-512h-128v-128h-128v-128h128v-128h128v-384h-256v256h-128v128h-128v128h-128v-512h-256z" />
    <glyph glyph-name="S" unicode="S" 
d="M0 0v256h512v128h128v128h-256v128h-256v128h-128v384h128v128h128v128h512v-256h-384v-128h-128v-128h256v-128h256v-128h128v-384h-128v-128h-128v-128h-640z" />
    <glyph glyph-name="T" unicode="T" 
d="M256 0v1152h-256v256h896v-256h-384v-1152h-256z" />
    <glyph glyph-name="U" unicode="U" 
d="M128 0v128h-128v1280h256v-1152h384v1152h256v-1280h-128v-128h-640z" />
    <glyph glyph-name="V" unicode="V" 
d="M384 0v128h-128v128h-128v256h-128v896h256v-768h128v-256h128v256h128v768h256v-896h-128v-256h-128v-128h-128v-128h-128z" />
    <glyph glyph-name="W" unicode="W" 
d="M0 0v1408h256v-896h128v128h128v-128h128v896h256v-1408h-256v128h-128v128h-128v-128h-128v-128h-256z" />
    <glyph glyph-name="X" unicode="X" 
d="M0 0v384h128v256h128v128h-128v256h-128v384h256v-256h128v-256h128v256h128v256h256v-384h-128v-256h-128v-128h128v-256h128v-384h-256v256h-128v256h-128v-256h-128v-256h-256z" />
    <glyph glyph-name="Y" unicode="Y" 
d="M256 0v768h-128v256h-128v384h256v-384h128v-128h128v128h128v384h256v-512h-128v-128h-128v-128h-128v-640h-256z" />
    <glyph glyph-name="Z" unicode="Z" 
d="M0 0v384h128v128h128v256h128v128h128v256h-512v256h896v-384h-128v-128h-128v-256h-128v-128h-128v-256h512v-256h-896z" />
    <glyph glyph-name="a" unicode="a" 
d="M640 640v256h-128v128h-128v-128h-128v-256h384zM0 0v1024h128v128h128v128h128v128h128v-128h128v-128h128v-128h128v-1024h-256v384h-384v-384h-256z" />
    <glyph glyph-name="b" unicode="b" 
d="M512 256v128h128v128h-128v128h-256v-384h256zM512 896v256h-256v-256h256zM0 0v1408h640v-128h128v-384h-128v-128h128v-128h128v-384h-128v-128h-128v-128h-640z" />
    <glyph glyph-name="c" unicode="c" 
d="M384 0v128h-128v128h-128v128h-128v640h128v128h128v128h128v128h512v-256h-256v-128h-256v-128h-128v-384h128v-128h256v-128h256v-256h-512z" />
    <glyph glyph-name="d" unicode="d" 
d="M512 256v128h128v640h-128v128h-256v-896h256zM0 0v1408h640v-128h128v-128h128v-896h-128v-128h-128v-128h-640z" />
    <glyph glyph-name="e" unicode="e" 
d="M0 0v1408h896v-256h-640v-256h384v-256h-384v-384h640v-256h-896z" />
    <glyph glyph-name="f" unicode="f" 
d="M0 0v1408h896v-256h-640v-256h384v-256h-384v-640h-256z" />
    <glyph glyph-name="g" unicode="g" 
d="M256 0v128h-128v128h-128v896h128v128h128v128h640v-256h-512v-128h-128v-640h128v-128h256v256h-128v256h384v-640h-128v-128h-512z" />
    <glyph glyph-name="h" unicode="h" 
d="M0 0v1408h256v-512h384v512h256v-1408h-256v640h-384v-640h-256z" />
    <glyph glyph-name="i" unicode="i" horiz-adv-x="448" 
d="M0 0v1408h256v-1408h-256z" />
    <glyph glyph-name="j" unicode="j" 
d="M256 0v128h-128v128h-128v384h256v-384h256v128h128v1024h256v-1152h-128v-128h-128v-128h-384z" />
    <glyph glyph-name="k" unicode="k" 
d="M0 0v1408h256v-384h128v128h128v128h128v128h256v-256h-128v-128h-128v-128h-128v-128h128v-128h128v-128h128v-512h-256v384h-128v128h-128v128h-128v-640h-256z" />
    <glyph glyph-name="l" unicode="l" 
d="M0 0v1408h256v-1152h640v-256h-896z" />
    <glyph glyph-name="m" unicode="m" 
d="M0 0v1408h128v-128h128v-128h128v-128h128v128h128v128h128v128h128v-1408h-256v768h-128v-128h-128v128h-128v-768h-256z" />
    <glyph glyph-name="n" unicode="n" 
d="M0 0v1408h256v-128h128v-128h128v-128h128v384h256v-1408h-256v640h-128v128h-128v128h-128v-896h-256z" />
    <glyph glyph-name="o" unicode="o" 
d="M640 256v896h-384v-896h384zM128 0v128h-128v1152h128v128h640v-128h128v-1152h-128v-128h-640z" />
    <glyph glyph-name="p" unicode="p" 
d="M512 768v128h128v256h-384v-384h256zM0 0v1408h768v-128h128v-512h-128v-128h-128v-128h-384v-512h-256z" />
    <glyph glyph-name="q" unicode="q" 
d="M640 0v128h-128v128h-128v256h256v-128h128v-128h128v-256h-256zM128 0v128h-128v1152h128v128h640v-128h128v-896h-128v128h-128v640h-384v-896h128v-128h128v-128h-384z" />
    <glyph glyph-name="r" unicode="r" 
d="M512 768v128h128v256h-384v-384h256zM0 0v1408h768v-128h128v-512h-128v-128h-128v-128h128v-128h128v-384h-256v256h-128v128h-128v128h-128v-512h-256z" />
    <glyph glyph-name="s" unicode="s" 
d="M0 0v256h512v128h128v128h-256v128h-256v128h-128v384h128v128h128v128h512v-256h-384v-128h-128v-128h256v-128h256v-128h128v-384h-128v-128h-128v-128h-640z" />
    <glyph glyph-name="t" unicode="t" 
d="M256 0v1152h-256v256h896v-256h-384v-1152h-256z" />
    <glyph glyph-name="u" unicode="u" 
d="M128 0v128h-128v1280h256v-1152h384v1152h256v-1280h-128v-128h-640z" />
    <glyph glyph-name="v" unicode="v" 
d="M384 0v128h-128v128h-128v256h-128v896h256v-768h128v-256h128v256h128v768h256v-896h-128v-256h-128v-128h-128v-128h-128z" />
    <glyph glyph-name="w" unicode="w" 
d="M0 0v1408h256v-896h128v128h128v-128h128v896h256v-1408h-256v128h-128v128h-128v-128h-128v-128h-256z" />
    <glyph glyph-name="x" unicode="x" 
d="M0 0v384h128v256h128v128h-128v256h-128v384h256v-256h128v-256h128v256h128v256h256v-384h-128v-256h-128v-128h128v-256h128v-384h-256v256h-128v256h-128v-256h-128v-256h-256z" />
    <glyph glyph-name="y" unicode="y" 
d="M256 0v768h-128v256h-128v384h256v-384h128v-128h128v128h128v384h256v-512h-128v-128h-128v-128h-128v-640h-256z" />
    <glyph glyph-name="z" unicode="z" 
d="M0 0v384h128v128h128v256h128v128h128v256h-512v256h896v-384h-128v-128h-128v-256h-128v-128h-128v-256h512v-256h-896z" />
  </font>
</defs>
</svg>
